# xmcd
#
# Track frame offsets: 
#        182
#        14300
#        26105
#        34612
#        44117
#        54612
#        66780
#        80355
#        92865
#        105745
#        118180
#        131077
#        142852
#        158855
#        170152
#        182402
#        195227
#        208550
#        224457
#
# Disc length: 3663 seconds
#
# Revision: 3
# Processed by: cddbd v1.5PL3 Copyright (c) Steve Scherf et al.
# Submitted via: ExactAudioCopy v0.95a5
#
DISCID=110e4d13
DTITLE=Various Artist - Replay Vol 1 No 5
DYEAR=1900
DGENRE=
TTITLE0=Fats Domino - Bluberry Hill
TTITLE1=The Platters - The Great Pretender
TTITLE2=Jerry Lee Lewis - Great Balls Of Fire
TTITLE3=Little Richard - Good Golly Miss Molly
TTITLE4=Clarence Frogman Henry - But I Do
TTITLE5=The Shirelles - Will You Still Love Me Tomorrow
TTITLE6=Gene Pitney - 25 Hours From Tulsa
TTITLE7=Dixie Cups - Chapel Of Love
TTITLE8=Shangri-Las - Leader Of The Pack
TTITLE9=Bo Diddley - Pretty Thing
TTITLE10=Jimmy Reed - Shame Shame Shame
TTITLE11=Tony Sheridan and The Beatles - What'd I Say
TTITLE12=Screaming Jay Hawkins - I Put A Spell On You
TTITLE13=The Yardbirds - For Your Love
TTITLE14=Chuck Berry - No Particular Place To Go
TTITLE15=Lee Dorsey - Working In A Coalmine
TTITLE16=Percy Sledge - When A Man Loves A Woman
TTITLE17=James Brown - I Got You (I Feel Good) (Live)
TTITLE18=George Benson - Li'l Darlin'
EXTD=Charly Recordings
EXTT0=
EXTT1=
EXTT2=
EXTT3=
EXTT4=
EXTT5=
EXTT6=
EXTT7=
EXTT8=
EXTT9=
EXTT10=
EXTT11=
EXTT12=
EXTT13=
EXTT14=
EXTT15=
EXTT16=
EXTT17=
EXTT18=
PLAYORDER=
